# xmcd CD database file
#
# Track frame offsets:
#	150
#	53624
#	89664
#	119437
#	150355
#	202386
#	247859
#	292946
#
# Disc length: 4617 seconds
#
# Revision: 0
# Processed by: cddbd v1.5.2PL0 Copyright (c) Steve Scherf et al.
# Submitted via: CDex 1.51
#
DISCID=69120708
DTITLE=Stadtharmonie Zürich Oerlikon - Seebach - Melancholia
DYEAR=2007
DGENRE=Wind Band
TTITLE0=James Barnes - Impressions of Japan
TTITLE1=Alfred Reed - Fifth Symphony I. Moderately and sustained, allegro assai
TTITLE2=Alfred Reed - Fifth Symphony II. Lento
TTITLE3=Alfred Reed - Fifth Symphony III. Allegro molto con fuoco
TTITLE4=Thomas Trachsel - Symyphonie No. 1 Melancholia I. Grave et pesante
TTITLE5=Thomas Trachsel - Symyphonie No. 1 Melancholia II. Scherzo - Tempo di valse
TTITLE6=Thomas Trachsel - Symyphonie No. 1 Melancholia III. Adagio con espressivo
TTITLE7=Thomas Trachsel - Symyphonie No. 1 Melancholia IV. Vivace con fuoco
EXTD=YEAR: 2007
EXTT0=
EXTT1=
EXTT2=
EXTT3=
EXTT4=
EXTT5=
EXTT6=
EXTT7=
PLAYORDER=
